#!OML:ASF H:\MichaelJackson\Top Level 1\Subject 1\Session 1\male.ASF
:FULLY-SPECIFIED
:DEGREES
1111
root -1.01771 14.9977 43.698 7.18566 -1.18349 3.26943
lowerback -2.11479 -0.772734 -0.969787
upperback -1.69937 -1.03568 -5.22009
thorax -0.641433 -0.541815 -4.85799
lowerneck -5.97921 0.764768 5.88693
upperneck -2.29073 0.651618 2.83371
head 0.286231 0.307518 -0.0851581
rclavicle 5.41688e-015 -4.77083e-015
rhumerus 2.61207 -19.9156 5.11728
rradius 23.7589
rwrist -3.94614
rhand -25.2183 -39.7326
rfingers 7.12502
rthumb 1.30072 290.292
lclavicle 5.41688e-015 -4.77083e-015
lhumerus -57.8762 -37.6533 112.827
lradius 54.5292
lwrist 20.6895
lhand 39.7068 24.354
lfingers 7.12502
lthumb 62.1517 35.6577
rfemur -32.84 -24.3184 -4.39176
rtibia 57.4598
rfoot -27.5262 18.8217
rtoes -24.6332
lfemur 2.28622 -27.4041 1.11078
ltibia 16.0125
lfoot -24.685 24.1162
ltoes -28.3055
1112
root -1.01619 14.9966 43.6986 7.19123 -1.22605 3.2855
lowerback -2.11074 -0.754178 -0.999218
upperback -1.70718 -1.01107 -5.23433
thorax -0.649605 -0.529396 -4.85576
lowerneck -5.94271 0.761158 5.87595
upperneck -2.33206 0.652138 2.84556
head 0.267285 0.306338 -0.0797173
rclavicle -3.926e-015 6.04305e-014
rhumerus 2.58971 -19.9315 5.12111
rradius 23.7425
rwrist -3.85401
rhand -25.2429 -39.7218
rfingers 7.12502
rthumb 1.27696 290.302
lclavicle -3.926e-015 6.04305e-014
lhumerus -57.9078 -37.6436 112.822
lradius 54.572
lwrist 20.6963
lhand 39.7196 24.3817
lfingers 7.12502
lthumb 62.1623 35.672
rfemur -32.8847 -24.334 -4.40367
rtibia 57.4802
rfoot -27.4835 18.8955
rtoes -24.4374
lfemur 2.29968 -27.374 1.07991
ltibia 16.0218
lfoot -24.7339 24.0975
ltoes -28.2623
1113
root -1.01472 14.9957 43.6991 7.19603 -1.27623 3.30254
lowerback -2.10754 -0.737085 -1.0298
upperback -1.71588 -0.98843 -5.2495
thorax -0.658387 -0.517981 -4.85389
lowerneck -5.90567 0.760004 5.86783
upperneck -2.36421 0.655383 2.85517
head 0.251173 0.306757 -0.0753935
rclavicle 4.91992e-015 6.20208e-014
rhumerus 2.5868 -19.9896 5.10053
rradius 23.7176
rwrist -3.72036
rhand -25.2645 -39.7107
rfingers 7.12502
rthumb 1.25612 290.313
lclavicle 4.91992e-015 6.20208e-014
lhumerus -57.9432 -37.6287 112.819
lradius 54.6154
lwrist 20.6848
lhand 39.7299 24.4061
lfingers 7.12502
lthumb 62.171 35.6855
rfemur -32.9308 -24.3343 -4.4152
rtibia 57.4992
rfoot -27.4486 18.9522
rtoes -24.2591
lfemur 2.31816 -27.3113 1.05116
ltibia 16.0217
lfoot -24.7802 24.0531
ltoes -28.2196
1114
root -1.01329 14.995 43.6994 7.20074 -1.32873 3.31886
lowerback -2.10311 -0.722518 -1.05774
upperback -1.72619 -0.969374 -5.26648
thorax -0.669886 -0.50844 -4.85545
lowerneck -5.86393 0.761576 5.86767
upperneck -2.39337 0.661978 2.85978
head 0.235337 0.308803 -0.0738523
rclavicle 2.98177e-015 4.6118e-014
rhumerus 2.59563 -20.0672 5.06163
rradius 23.688
rwrist -3.57784
rhand -25.2841 -39.7149
rfingers 7.12502
rthumb 1.23721 290.309
lclavicle 2.98177e-015 4.6118e-014
lhumerus -57.9812 -37.6129 112.819
lradius 54.6542
lwrist 20.6617
lhand 39.7422 24.4289
lfingers 7.12502
lthumb 62.1812 35.6954
rfemur -32.9749 -24.3232 -4.42521
rtibia 57.5145
rfoot -27.418 18.9966
rtoes -24.0845
lfemur 2.335 -27.2075 1.03112
ltibia 16.015
lfoot -24.8239 23.9701
ltoes -28.1828
1115
root -1.01188 14.9944 43.6996 7.20487 -1.37926 3.33558
lowerback -2.09897 -0.711603 -1.0849
upperback -1.73533 -0.955161 -5.28484
thorax -0.680439 -0.501331 -4.85899
lowerneck -5.82142 0.765959 5.87318
upperneck -2.42206 0.671997 2.8625
head 0.219616 0.312507 -0.0737581
rclavicle -1.14798e-014 -1.59028e-014
rhumerus 2.61335 -20.1662 5.00662
rradius 23.6552
rwrist -3.42938
rhand -25.2909 -39.7166
rfingers 7.12502
rthumb 1.23064 290.307
lclavicle -1.14798e-014 -1.59028e-014
lhumerus -58.0117 -37.5978 112.816
lradius 54.681
lwrist 20.6328
lhand 39.7631 24.4555
lfingers 7.12502
lthumb 62.1985 35.7
rfemur -33.0137 -24.3068 -4.43653
rtibia 57.5258
rfoot -27.3945 19.0296
rtoes -23.9314
lfemur 2.35126 -27.0982 1.01272
ltibia 16.0061
lfoot -24.8642 23.88
ltoes -28.1448
1116
root -1.01051 14.994 43.6996 7.20922 -1.4255 3.34779
lowerback -2.09518 -0.703502 -1.10692
upperback -1.74147 -0.944621 -5.30261
thorax -0.688075 -0.496065 -4.86491
lowerneck -5.78658 0.771628 5.88014
upperneck -2.44835 0.682951 2.86659
head 0.205917 0.316817 -0.0734565
rclavicle 1.32192e-014 3.33958e-014
rhumerus 2.63236 -20.2606 4.94829
rradius 23.6206
rwrist -3.3054
rhand -25.3019 -39.7234
rfingers 7.12502
rthumb 1.22001 290.3
lclavicle 1.32192e-014 3.33958e-014
lhumerus -58.0291 -37.5896 112.81
lradius 54.6925
lwrist 20.6068
lhand 39.79 24.4763
lfingers 7.12502
lthumb 62.2209 35.6925
rfemur -33.0483 -24.2859 -4.44309
rtibia 57.5344
rfoot -27.3794 19.0492
rtoes -23.8118
lfemur 2.36034 -26.9845 1.0029
ltibia 16.0029
lfoot -24.9069 23.7814
ltoes -28.1066
1117
root -1.00917 14.9935 43.6996 7.21385 -1.46818 3.36154
lowerback -2.09097 -0.698658 -1.13112
upperback -1.74489 -0.938288 -5.32082
thorax -0.693438 -0.492852 -4.87012
lowerneck -5.76092 0.778376 5.8888
upperneck -2.47173 0.694403 2.87139
head 0.194647 0.321538 -0.0732011
rclavicle -1.55549e-014 -6.36111e-014
rhumerus 2.65271 -20.349 4.88719
rradius 23.5857
rwrist -3.20192
rhand -25.3124 -39.7336
rfingers 7.12502
rthumb 1.20988 290.29
lclavicle -1.55549e-014 -6.36111e-014
lhumerus -58.0324 -37.5835 112.797
lradius 54.6922
lwrist 20.5847
lhand 39.8257 24.5017
lfingers 7.12502
lthumb 62.2505 35.6802
rfemur -33.0817 -24.2648 -4.45175
rtibia 57.5428
rfoot -27.3692 19.0617
rtoes -23.7174
lfemur 2.36386 -26.8837 0.991225
ltibia 16.0073
lfoot -24.9539 23.6904
ltoes -28.0663
1118
root -1.00789 14.9928 43.6994 7.21803 -1.50839 3.37427
lowerback -2.0865 -0.695364 -1.15717
upperback -1.74462 -0.933812 -5.33766
thorax -0.695222 -0.490481 -4.87288
lowerneck -5.7484 0.784339 5.89244
upperneck -2.48926 0.703874 2.88354
head 0.187246 0.325652 -0.0698938
rclavicle -5.86415e-015 -4.77083e-015
rhumerus 2.67247 -20.4231 4.8302
rradius 23.5495
rwrist -3.11922
rhand -25.3141 -39.754
rfingers 7.12502
rthumb 1.2082 290.27
lclavicle -5.86415e-015 -4.77083e-015
lhumerus -58.0224 -37.5823 112.778
lradius 54.684
lwrist 20.5696
lhand 39.8648 24.5339
lfingers 7.12502
lthumb 62.283 35.6709
rfemur -33.1144 -24.242 -4.46027
rtibia 57.5538
rfoot -27.3577 19.0672
rtoes -23.638
lfemur 2.3656 -26.8043 0.978147
ltibia 16.0175
lfoot -25.0004 23.6177
ltoes -28.0213
1119
root -1.00669 14.9921 43.6993 7.22167 -1.5478 3.38903
lowerback -2.08133 -0.692991 -1.18787
upperback -1.74232 -0.930424 -5.35406
thorax -0.695323 -0.488576 -4.87256
lowerneck -5.74803 0.78929 5.89474
upperneck -2.4978 0.710753 2.89751
head 0.184563 0.328884 -0.0658509
rclavicle 2.28602e-015 2.54444e-014
rhumerus 2.68394 -20.4576 4.78565
rradius 23.5198
rwrist -3.07605
rhand -25.3086 -39.7837
rfingers 7.12502
rthumb 1.21354 290.24
lclavicle 2.28602e-015 2.54444e-014
lhumerus -58.0075 -37.5857 112.756
lradius 54.6742
lwrist 20.5608
lhand 39.9031 24.5662
lfingers 7.12502
lthumb 62.3148 35.6626
rfemur -33.1508 -24.2186 -4.46955
rtibia 57.5687
rfoot -27.3425 19.0659
rtoes -23.5737
lfemur 2.36848 -26.748 0.958026
ltibia 16.0317
lfoot -25.0465 23.5667
ltoes -27.9725
1120
root -1.00556 14.9917 43.6991 7.22513 -1.58755 3.40603
lowerback -2.07429 -0.689903 -1.22186
upperback -1.73798 -0.926005 -5.37041
thorax -0.69423 -0.48609 -4.87028
lowerneck -5.7659 0.790293 5.89347
upperneck -2.49179 0.710551 2.91337
head 0.189236 0.329239 -0.0607592
rclavicle -8.89561e-015 3.33958e-014
rhumerus 2.69351 -20.493 4.74616
rradius 23.4886
rwrist -3.02861
rhand -25.2964 -39.8128
rfingers 7.12502
rthumb 1.22532 290.211
lclavicle -8.89561e-015 3.33958e-014
lhumerus -57.9932 -37.6007 112.736
lradius 54.6697
lwrist 20.5611
lhand 39.9325 24.5954
lfingers 7.12502
lthumb 62.3392 35.6604
rfemur -33.1938 -24.1922 -4.47907
rtibia 57.588
rfoot -27.3148 19.0636
rtoes -23.4959
lfemur 2.37568 -26.724 0.927744
ltibia 16.046
lfoot -25.0876 23.5495
ltoes -27.9233
1121
root -1.00451 14.9913 43.699 7.22735 -1.62844 3.42705
lowerback -2.06683 -0.685595 -1.26209
upperback -1.73444 -0.919927 -5.38645
thorax -0.693967 -0.482718 -4.86409
lowerneck -5.78558 0.787773 5.88788
upperneck -2.47659 0.705385 2.93058
head 0.196954 0.327465 -0.054645
rclavicle 3.8763e-015 1.59028e-014
rhumerus 2.69666 -20.5121 4.71759
rradius 23.4614
rwrist -2.99097
rhand -25.2812 -39.8373
rfingers 7.12502
rthumb 1.23999 290.187
lclavicle 3.8763e-015 1.59028e-014
lhumerus -57.9916 -37.623 112.725
lradius 54.6745
lwrist 20.5674
lhand 39.9516 24.6235
lfingers 7.12502
lthumb 62.355 35.6682
rfemur -33.2387 -24.1649 -4.49163
rtibia 57.6104
rfoot -27.2857 19.0492
rtoes -23.4383
lfemur 2.39228 -26.7319 0.885047
ltibia 16.0536
lfoot -25.1224 23.5647
ltoes -27.8735
1122
root -1.00348 14.9911 43.6987 7.22902 -1.66804 3.44835
lowerback -2.05559 -0.681142 -1.3023
upperback -1.73339 -0.913969 -5.40126
thorax -0.698383 -0.479449 -4.85657
lowerneck -5.80903 0.78268 5.87958
upperneck -2.45021 0.696165 2.94426
head 0.208707 0.324052 -0.049259
rclavicle 4.12478e-015 6.36111e-015
rhumerus 2.6907 -20.4941 4.70485
rradius 23.4436
rwrist -2.98733
rhand -25.2709 -39.879
rfingers 7.12502
rthumb 1.24997 290.145
lclavicle 4.12478e-015 6.36111e-015
lhumerus -58.0064 -37.6503 112.725
lradius 54.691
lwrist 20.5776
lhand 39.9522 24.6409
lfingers 7.12502
lthumb 62.3555 35.685
rfemur -33.2846 -24.1386 -4.50285
rtibia 57.6338
rfoot -27.2521 19.0295
rtoes -23.3826
lfemur 2.41376 -26.7551 0.838593
ltibia 16.0548
lfoot -25.1494 23.5965
ltoes -27.8286
